# xmcd
#
# Track frame offsets: 
#        150
#        14500
#        28303
#        40157
#        52755
#        66463
#        80763
#        95070
#        108723
#        123156
#        136429
#        151503
#        164632
#        179616
#        192836
#        207351
#        219495
#        232746
#        247165
#        261545
#
# Disc length: 3688 seconds
#
# Revision: 3
# Processed by: cddbd v1.5.2PL0 Copyright (c) Steve Scherf et al.
# Submitted via: ExactAudioCopyFreeDBPlugin 1.0
#
DISCID=2a0e6614
DTITLE=Various Artist - Mississippi Masters:  Early American Blues Cl
DTITLE=assics, 1927-35 [Yazoo]
DYEAR=1994
DGENRE=Blues
TTITLE0=Garfield Akers - Dough Roller Blues
TTITLE1=William Harris - Kansas City Blues
TTITLE2=Otto Virgial - Little Girl in Rome
TTITLE3=Mattie Delaney - Tallahatchie River Blues
TTITLE4=Geeshie Wiley - Last Kind Words
TTITLE5=Joe Calicott - Fare Thee Well Blues
TTITLE6=William Harris - Bullfrog Blues
TTITLE7=John D. Fox - The Moaning Blues
TTITLE8=Geeshie Wiley and Elvie Thomas - Pick Poor Robin Clean
TTITLE9=Blind Joe Reynolds - Outside Woman Blues
TTITLE10=King Solomon Hill - Gone Dead Train
TTITLE11=Garfield Akers - Cottonfield Blues, Part 1
TTITLE12=Garfield Akers - Cottonfield Blues, Part 2
TTITLE13=William Harris - Hot Time Blues
TTITLE14=Geeshie Wiley - Skinny Legs Blues
TTITLE15=Blind Joe Reynolds - Third Street Woman Blues
TTITLE16=John D. Fox - Worried Man Blues
TTITLE17=Mattie Delaney - Down the Big Road Blues
TTITLE18=King Solomon Hill - Whoopee Blues
TTITLE19=Elvie Thomas - Motherless Child Blues
EXTD=
EXTT0=
EXTT1=
EXTT2=
EXTT3=
EXTT4=
EXTT5=
EXTT6=
EXTT7=
EXTT8=
EXTT9=
EXTT10=
EXTT11=
EXTT12=
EXTT13=
EXTT14=
EXTT15=
EXTT16=
EXTT17=
EXTT18=
EXTT19=
PLAYORDER=
